<?xml version="1.0" encoding="UTF-8" standalone="no"?>
<!DOCTYPE svg PUBLIC "-//W3C//DTD SVG 1.1//EN" "http://www.w3.org/Graphics/SVG/1.1/DTD/svg11.dtd">
<svg width="100%" height="100%" viewBox="0 0 294 345" version="1.1" xmlns="http://www.w3.org/2000/svg" xmlns:xlink="http://www.w3.org/1999/xlink" xml:space="preserve" xmlns:serif="http://www.serif.com/" style="fill-rule:evenodd;clip-rule:evenodd;stroke-linejoin:round;stroke-miterlimit:2;">
    <g transform="matrix(1.57983,0,0,1.57983,4.88861,-75.5853)">
        <g id="g310">
            <path id="path302" d="M64.361,261.101C60.922,260.012 57.704,256.987 56.312,253.537L55.69,251.996L55.539,220.446L49.661,220.312C44.656,220.198 43.526,220.095 42.045,219.62C38.671,218.539 35.198,215.614 33.757,212.639C32.195,209.414 32.275,211.953 32.275,165.422L32.275,122.747L147.633,122.747L147.633,165.422C147.633,211.953 147.713,209.414 146.15,212.639C144.71,215.614 141.236,218.539 137.863,219.62C136.382,220.095 135.251,220.198 130.247,220.312L124.369,220.446L124.217,251.996L123.596,253.537C121.598,258.49 116.891,261.653 111.518,261.653C106.669,261.653 102.521,259.217 100.311,255.07C98.695,252.039 98.685,251.916 98.685,235.404L98.685,220.378L81.223,220.378L81.223,235.404C81.223,248.042 81.158,250.677 80.818,251.985C79.676,256.369 76.423,259.849 72.265,261.134C70.022,261.827 66.607,261.813 64.361,261.101L64.361,261.101ZM11.746,199.877C7.174,198.882 3.479,195.505 2.108,191.067C1.598,189.414 1.583,188.547 1.583,160.318C1.583,132.089 1.598,131.221 2.108,129.569C2.759,127.462 4.301,125.036 5.84,123.699C7.446,122.303 10.249,120.998 12.434,120.63C18.939,119.533 25.603,124.122 26.956,130.631C27.365,132.597 27.365,188.039 26.956,190.004C25.915,195.014 21.488,199.204 16.4,199.998C14.27,200.33 13.766,200.317 11.746,199.877ZM163.243,199.974C158.415,199.196 153.967,194.888 152.952,190.004C152.75,189.034 152.66,179.89 152.66,160.318C152.66,140.746 152.75,131.602 152.952,130.631C154.305,124.122 160.969,119.533 167.474,120.63C169.659,120.998 172.461,122.303 174.068,123.699C175.607,125.036 177.149,127.462 177.799,129.569C178.31,131.221 178.325,132.089 178.325,160.318C178.325,188.547 178.31,189.414 177.799,191.067C176.41,195.564 172.724,198.896 168.038,199.889C166.088,200.303 165.365,200.315 163.243,199.974L163.243,199.974ZM32.37,115.105C33.412,97.946 43.382,82.369 59.328,72.985C60.602,72.235 61.643,71.586 61.643,71.542C61.643,71.497 59.553,67.693 56.997,63.088C53.688,57.125 52.375,54.519 52.433,54.031C52.478,53.654 52.848,53.099 53.255,52.796C54.624,51.778 54.958,52.201 60.178,61.575C63.898,68.256 65.019,70.07 65.337,69.929C67.4,69.016 72.595,67.287 75.141,66.665C80.709,65.305 83.709,64.96 89.954,64.96C96.199,64.96 99.199,65.305 104.766,66.665C107.313,67.287 112.507,69.016 114.57,69.929C114.889,70.07 116.009,68.256 119.73,61.575C124.95,52.201 125.283,51.778 126.653,52.796C127.06,53.099 127.429,53.654 127.475,54.031C127.533,54.519 126.22,57.125 122.91,63.088C120.355,67.693 118.264,71.497 118.264,71.542C118.264,71.586 119.306,72.235 120.579,72.985C136.526,82.369 146.496,97.946 147.538,115.105L147.713,117.985L32.195,117.985L32.37,115.105ZM65.612,96.302C66.122,96.051 66.893,95.342 67.328,94.727C67.987,93.793 68.117,93.355 68.117,92.055C68.117,90.756 67.987,90.317 67.328,89.383C64.529,85.422 58.468,87.267 58.468,92.081C58.468,92.658 58.629,93.516 58.826,93.986C59.267,95.042 60.877,96.491 61.847,96.705C62.244,96.792 62.689,96.899 62.834,96.942C63.31,97.081 64.667,96.769 65.612,96.302ZM118.793,96.407C119.157,96.222 119.775,95.733 120.166,95.32C123.027,92.296 120.838,87.232 116.669,87.232C112.239,87.232 110.104,92.362 113.232,95.489C114.723,96.981 116.94,97.347 118.793,96.407Z" style="fill:white;fill-rule:nonzero;"/>
        </g>
    </g>
</svg>
