<?xml version="1.0" encoding="UTF-8" standalone="no"?>
<!DOCTYPE svg PUBLIC "-//W3C//DTD SVG 1.1//EN" "http://www.w3.org/Graphics/SVG/1.1/DTD/svg11.dtd">
<svg width="100%" height="100%" viewBox="0 0 810 810" version="1.1" xmlns="http://www.w3.org/2000/svg" xmlns:xlink="http://www.w3.org/1999/xlink" xml:space="preserve" xmlns:serif="http://www.serif.com/" style="fill-rule:evenodd;clip-rule:evenodd;stroke-linejoin:round;stroke-miterlimit:2;">
    <g transform="matrix(1,0,0,1,-845,0)">
        <g transform="matrix(1,0,0,1,843.955,-0.6)">
            <circle cx="406.6" cy="405.6" r="402.3" style="fill:rgb(255,69,0);"/>
        </g>
        <g transform="matrix(1,0,0,1,843.955,-0.6)">
            <path d="M674.9,405.6C673.7,373.2 646.5,347.9 614,349C599.6,349.5 585.9,355.4 575.5,365.3C529.7,334.1 475.9,317 420.6,315.8L446.7,190.3L532.8,208.4C535.2,230.5 555,246.5 577.1,244.1C599.2,241.7 615.2,221.9 612.8,199.8C610.4,177.7 590.6,161.7 568.5,164.1C555.8,165.4 544.4,172.8 538.1,183.8L439.5,164.1C432.8,162.6 426.1,166.8 424.6,173.6L424.6,173.8L394.9,313.4C338.9,314.3 284.4,331.5 238,362.9C214.4,340.7 177.2,341.8 155,365.5C132.8,389.1 133.9,426.3 157.6,448.5C162.2,452.8 167.5,456.5 173.4,459.1C173,465 173,470.9 173.4,476.8C173.4,566.9 278.4,640.2 407.9,640.2C537.4,640.2 642.4,567 642.4,476.8C642.8,470.9 642.8,465 642.4,459.1C662.6,449 675.3,428.2 674.9,405.6ZM272.6,445.9C272.6,423.7 290.7,405.6 312.9,405.6C335.1,405.6 353.2,423.7 353.2,445.9C353.2,468.1 335.1,486.2 312.9,486.2C290.6,486 272.6,468.1 272.6,445.9ZM506.3,556.5C477.7,578 442.7,589 406.9,587.5C371.1,589 336.1,578 307.5,556.5C303.7,551.9 304.4,545 309,541.2C313,537.9 318.7,537.9 322.8,541.2C347,558.9 376.5,567.9 406.5,566.5C436.5,568.1 466.1,559.5 490.6,542C495,537.7 502.2,537.8 506.5,542.2C510.8,546.6 510.7,553.8 506.3,558.1L506.3,556.5ZM499.1,487.6C476.9,487.6 458.8,469.5 458.8,447.3C458.8,425.1 476.9,407 499.1,407C521.3,407 539.4,425.1 539.4,447.3C540.3,469.5 523,488.2 500.8,489.1L498.8,489.1L499.1,487.6Z" style="fill:white;fill-rule:nonzero;"/>
        </g>
    </g>
</svg>
