<?xml version="1.0" encoding="UTF-8" standalone="no"?>
<!DOCTYPE svg PUBLIC "-//W3C//DTD SVG 1.1//EN" "http://www.w3.org/Graphics/SVG/1.1/DTD/svg11.dtd">
<svg width="100%" height="100%" viewBox="0 0 400 400" version="1.1" xmlns="http://www.w3.org/2000/svg" xmlns:xlink="http://www.w3.org/1999/xlink" xml:space="preserve" xmlns:serif="http://www.serif.com/" style="fill-rule:evenodd;clip-rule:evenodd;stroke-linejoin:round;stroke-miterlimit:2;">
    <g transform="matrix(1,0,0,1,350,0)">
        <g id="Dark-Blue" serif:id="Dark Blue">
            <path d="M0,400L-300,400C-327.614,400 -350,377.614 -350,350L-350,50C-350,22.386 -327.614,0 -300,0L0,0C27.614,0 50,22.386 50,50L50,350C50,377.614 27.614,400 0,400" style="fill:rgb(29,155,240);fill-rule:nonzero;"/>
        </g>
    </g>
    <g transform="matrix(1,0,0,1,153.623,98.4109)">
        <g id="Logo---FIXED" serif:id="Logo „ FIXED">
            <path d="M0,203.178C94.343,203.178 145.935,125.017 145.935,57.242C145.935,55.021 145.89,52.81 145.789,50.611C155.803,43.372 164.508,34.339 171.376,24.054C162.186,28.136 152.295,30.888 141.921,32.129C152.51,25.78 160.641,15.732 164.475,3.756C154.562,9.631 143.59,13.905 131.907,16.205C122.547,6.236 109.217,0 94.467,0C66.139,0 43.168,22.971 43.168,51.288C43.168,55.314 43.619,59.227 44.499,62.983C1.872,60.84 -35.929,40.429 -61.223,9.394C-65.632,16.972 -68.17,25.78 -68.17,35.174C-68.17,52.969 -59.114,68.678 -45.345,77.868C-53.758,77.609 -61.663,75.297 -68.576,71.451C-68.587,71.665 -68.587,71.88 -68.587,72.105C-68.587,96.949 -50.905,117.687 -27.437,122.39C-31.745,123.562 -36.278,124.195 -40.958,124.195C-44.263,124.195 -47.477,123.867 -50.6,123.269C-44.071,143.647 -25.137,158.476 -2.684,158.894C-20.243,172.652 -42.357,180.85 -66.388,180.85C-70.527,180.85 -74.609,180.613 -78.624,180.139C-55.923,194.687 -28.971,203.178 0,203.178" style="fill:white;fill-rule:nonzero;"/>
        </g>
    </g>
</svg>
